<svg version="1.1" preserveAspectRatio="none" xmlns="http://www.w3.org/2000/svg" width="500" height="500" viewBox="0 0 500 500"><rect width="100%" height="100%" fill="#1C1C1C" fill-opacity="1"/><svg viewBox="58.755 86 426.3761 328" width="333" height="256.1682045499267" x="83.5px" y="121.9159px" xmlns="http://www.w3.org/2000/svg" xmlns:xlink="http://www.w3.org/1999/xlink" preserveAspectRatio="none"><defs></defs><style>.companyName {fill:#EDEDED;fill-opacity:1;}.icon1 {fill:#EDEDED;fill-opacity:1;}.icon2 {fill:#F35F40;fill-opacity:1;}.icon3 {fill:#B2B2B1;fill-opacity:1;}.icon3-str {stroke:#B2B2B1;stroke-opacity:1;}.text {fill:#EDEDED;fill-opacity:1;}</style><g opacity="1" transform="rotate(0 168.4948 86)">
<svg width="206.8965" height="200" x="168.4948" y="86" version="1.1" preserveAspectRatio="none" viewBox="2 4 60 58">
  <g transform="matrix(1 0 0 1 0 0)" class="icon1"><rect x="37" y="36" width="2" height="2"></rect><path d="M57,4H18C12.486,4,8,8.486,8,14c0,3.301,1.614,6.224,4.087,8.046C6.448,22.513,2,27.243,2,33v0.96V61v0.096h0.019  C2.07,61.601,2.482,62,3,62h23c0.552,0,1-0.448,1-1V46.895c1.05,1.072,2.445,1.801,4,2.025V49h1h12.5H60v4h-4v2h2v7h2v-7h1  c0.552,0,1-0.448,1-1v-6c0-0.552-0.448-1-1-1H48.238C48.718,46.284,49,45.425,49,44.5s-0.282-1.784-0.762-2.5H57  c2.757,0,5-2.243,5-5V9C62,6.243,59.757,4,57,4z M10,14c0-4.411,3.589-8,8-8s8,3.589,8,8c0,1.859-0.643,3.568-1.711,4.928  C22.423,18.591,21,16.962,21,15h-2c0,2.468,1.498,4.59,3.631,5.511C21.323,21.445,19.727,22,18,22C13.589,22,10,18.411,10,14z M4,35  l14.043-0.001c0.912-0.038,1.753,0.254,2.326,0.802C20.657,36.077,21,36.54,21,37.179V60H4V35z M47,44.5c0,1.378-1.122,2.5-2.5,2.5  H32c-2.757,0-5-2.243-5-5v-9h-2v27h-2V37.179c0-1.049-0.443-2.052-1.248-2.822C20.787,33.432,19.398,32.941,18,33H4  c0-4.962,4.038-9,9-9h10c4.962,0,9,4.038,9,9v8c0,0.552,0.448,1,1,1h11.5C45.878,42,47,43.122,47,44.5z M40,32h-2v-8.382l1-0.5  l1,0.5V32z M38.553,21.105L37,21.882l-1.553-0.776C35.307,21.035,35.153,21,35,21c-0.042,0-0.084,0.002-0.126,0.008L37,15.692  l2.126,5.315C38.932,20.981,38.731,21.016,38.553,21.105z M35,23.118l1,0.5V32h-2v-8.382L35,23.118z M60,37c0,1.654-1.346,3-3,3  H44.5H34v-6h14h6h6V37z M47.259,27.613c-0.504-1.512-0.589-3.092-0.281-4.613h8.045c0.307,1.521,0.223,3.101-0.281,4.613L53.279,32  h-4.559L47.259,27.613z M50.757,15.97C50.838,15.99,50.919,16,51,16c0.262,0,0.517-0.103,0.707-0.293l0.49-0.49l1.327,0.664  c-0.053,0.376-0.132,0.75-0.247,1.12h-4.555c-0.164-0.53-0.245-1.07-0.284-1.609L50.757,15.97z M48.576,13.363  c0.33-1.564,1.153-3.018,2.424-4.08c1.342,1.121,2.193,2.676,2.481,4.34l-1.034-0.517c-0.385-0.191-0.85-0.116-1.154,0.188l-0.6,0.6  L48.576,13.363z M47.747,20.742L48.618,19h4.764l0.871,1.742c0.042,0.085,0.074,0.172,0.114,0.258h-6.733  C47.673,20.915,47.705,20.827,47.747,20.742z M60,32h-4.612l1.252-3.754c0.929-2.788,0.717-5.77-0.597-8.398l-0.962-1.924  l0.048-0.145c1.221-3.661,0.018-7.741-2.996-10.153l-0.508-0.406c-0.365-0.292-0.884-0.292-1.25,0L49.87,7.624  c-3.014,2.411-4.219,6.49-2.999,10.152l0.049,0.147l-0.962,1.924c-1.314,2.628-1.526,5.611-0.597,8.398L46.613,32H42v-9h-0.008  c0-0.125-0.015-0.251-0.063-0.372l-4-10C37.776,12.249,37.409,12,37,12s-0.776,0.249-0.929,0.628l-4,10  c-0.048,0.121-0.063,0.247-0.063,0.372H32v3.695c-1.827-2.6-4.746-4.372-8.087-4.649C26.386,20.224,28,17.301,28,14  c0-3.273-1.588-6.175-4.025-8H57c1.654,0,3,1.346,3,3V32z"></path></g>
</svg>
</g><g opacity="1" transform="rotate(0 58.755 392)">
<svg width="426.3761" height="22" x="58.755" y="392" version="1.1" preserveAspectRatio="none" viewBox="4.56 -29.68 725.48 37.44">
  <g transform="matrix(1 0 0 1 0 0)" class="text"><path id="id-6izo4zJp31" d="M4.56 0L4.56-28L15.96-28Q20.40-28 23.80-26.22Q27.20-24.44 29.08-21.26Q30.96-18.08 30.96-14L30.96-14Q30.96-9.92 29.08-6.74Q27.20-3.56 23.80-1.78Q20.40 0 15.96 0L15.96 0L4.56 0ZM7.52-2.56L15.80-2.56Q19.48-2.56 22.24-4.02Q25-5.48 26.52-8.06Q28.04-10.64 28.04-14L28.04-14Q28.04-17.36 26.52-19.94Q25-22.52 22.24-23.98Q19.48-25.44 15.80-25.44L15.80-25.44L7.52-25.44L7.52-2.56Z M42.92-16.92Q43.92-19.04 45.90-20.12Q47.88-21.20 50.80-21.20L50.80-21.20L50.80-18.44L50.12-18.48Q46.80-18.48 44.92-16.44Q43.04-14.40 43.04-10.72L43.04-10.72L43.04 0L40.20 0L40.20-21.04L42.92-21.04L42.92-16.92Z M77.28-10.52L77.24-9.64L59.64-9.64Q59.88-6.36 62.16-4.34Q64.44-2.32 67.92-2.32L67.92-2.32Q69.88-2.32 71.52-3.02Q73.16-3.72 74.36-5.08L74.36-5.08L75.96-3.24Q74.56-1.56 72.46-0.68Q70.36 0.20 67.84 0.20L67.84 0.20Q64.60 0.20 62.10-1.18Q59.60-2.56 58.20-5Q56.80-7.44 56.80-10.52L56.80-10.52Q56.80-13.60 58.14-16.04Q59.48-18.48 61.82-19.84Q64.16-21.20 67.08-21.20L67.08-21.20Q70-21.20 72.32-19.84Q74.64-18.48 75.96-16.06Q77.28-13.64 77.28-10.52L77.28-10.52ZM67.08-18.76Q64.04-18.76 61.98-16.82Q59.92-14.88 59.64-11.76L59.64-11.76L74.56-11.76Q74.28-14.88 72.22-16.82Q70.16-18.76 67.08-18.76L67.08-18.76Z M93.04-21.20Q97.16-21.20 99.36-19.14Q101.56-17.08 101.56-13.04L101.56-13.04L101.56 0L98.84 0L98.84-3.28Q97.88-1.64 96.02-0.72Q94.16 0.20 91.60 0.20L91.60 0.20Q88.08 0.20 86.00-1.48Q83.92-3.16 83.92-5.92L83.92-5.92Q83.92-8.60 85.86-10.24Q87.80-11.88 92.04-11.88L92.04-11.88L98.72-11.88L98.72-13.16Q98.72-15.88 97.20-17.30Q95.68-18.72 92.76-18.72L92.76-18.72Q90.76-18.72 88.92-18.06Q87.08-17.40 85.76-16.24L85.76-16.24L84.48-18.36Q86.08-19.72 88.32-20.46Q90.56-21.20 93.04-21.20L93.04-21.20ZM92.04-2.04Q94.44-2.04 96.16-3.14Q97.88-4.24 98.72-6.32L98.72-6.32L98.72-9.76L92.12-9.76Q86.72-9.76 86.72-6L86.72-6Q86.72-4.16 88.12-3.10Q89.52-2.04 92.04-2.04L92.04-2.04Z M138.72-21.20Q142.68-21.20 144.94-18.92Q147.20-16.64 147.20-12.20L147.20-12.20L147.20 0L144.36 0L144.36-11.92Q144.36-15.20 142.78-16.92Q141.20-18.64 138.32-18.64L138.32-18.64Q135.04-18.64 133.16-16.62Q131.28-14.60 131.28-11.04L131.28-11.04L131.28 0L128.44 0L128.44-11.92Q128.44-15.20 126.86-16.92Q125.28-18.64 122.36-18.64L122.36-18.64Q119.12-18.64 117.22-16.62Q115.32-14.60 115.32-11.04L115.32-11.04L115.32 0L112.48 0L112.48-21.04L115.20-21.04L115.20-17.20Q116.32-19.12 118.32-20.16Q120.32-21.20 122.92-21.20L122.92-21.20Q125.56-21.20 127.50-20.08Q129.44-18.96 130.40-16.76L130.40-16.76Q131.56-18.84 133.74-20.02Q135.92-21.20 138.72-21.20L138.72-21.20Z M158.40 0.20Q157.52 0.20 156.90-0.44Q156.28-1.08 156.28-2L156.28-2Q156.28-2.92 156.90-3.54Q157.52-4.16 158.40-4.16L158.40-4.16Q159.28-4.16 159.92-3.54Q160.56-2.92 160.56-2L160.56-2Q160.56-1.08 159.92-0.44Q159.28 0.20 158.40 0.20L158.40 0.20Z M196.24 0.24Q192.08 0.24 188.74-1.60Q185.40-3.44 183.50-6.70Q181.60-9.96 181.60-14L181.60-14Q181.60-18.04 183.50-21.30Q185.40-24.56 188.76-26.40Q192.12-28.24 196.28-28.24L196.28-28.24Q199.40-28.24 202.04-27.20Q204.68-26.16 206.52-24.16L206.52-24.16L204.64-22.28Q201.36-25.60 196.36-25.60L196.36-25.60Q193.04-25.60 190.32-24.08Q187.60-22.56 186.06-19.92Q184.52-17.28 184.52-14L184.52-14Q184.52-10.72 186.06-8.08Q187.60-5.44 190.32-3.92Q193.04-2.40 196.36-2.40L196.36-2.40Q201.40-2.40 204.64-5.76L204.64-5.76L206.52-3.88Q204.68-1.88 202.02-0.82Q199.36 0.24 196.24 0.24L196.24 0.24Z M218.16-16.92Q219.16-19.04 221.14-20.12Q223.12-21.20 226.04-21.20L226.04-21.20L226.04-18.44L225.36-18.48Q222.04-18.48 220.16-16.44Q218.28-14.40 218.28-10.72L218.28-10.72L218.28 0L215.44 0L215.44-21.04L218.16-21.04L218.16-16.92Z M252.52-10.52L252.48-9.64L234.88-9.64Q235.12-6.36 237.40-4.34Q239.68-2.32 243.16-2.32L243.16-2.32Q245.12-2.32 246.76-3.02Q248.40-3.72 249.60-5.08L249.60-5.08L251.20-3.24Q249.80-1.56 247.70-0.68Q245.60 0.20 243.08 0.20L243.08 0.20Q239.84 0.20 237.34-1.18Q234.84-2.56 233.44-5Q232.04-7.44 232.04-10.52L232.04-10.52Q232.04-13.60 233.38-16.04Q234.72-18.48 237.06-19.84Q239.40-21.20 242.32-21.20L242.32-21.20Q245.24-21.20 247.56-19.84Q249.88-18.48 251.20-16.06Q252.52-13.64 252.52-10.52L252.52-10.52ZM242.32-18.76Q239.28-18.76 237.22-16.82Q235.16-14.88 234.88-11.76L234.88-11.76L249.80-11.76Q249.52-14.88 247.46-16.82Q245.40-18.76 242.32-18.76L242.32-18.76Z M268.28-21.20Q272.40-21.20 274.60-19.14Q276.80-17.08 276.80-13.04L276.80-13.04L276.80 0L274.08 0L274.08-3.28Q273.12-1.64 271.26-0.72Q269.40 0.20 266.84 0.20L266.84 0.20Q263.32 0.20 261.24-1.48Q259.16-3.16 259.16-5.92L259.16-5.92Q259.16-8.60 261.10-10.24Q263.04-11.88 267.28-11.88L267.28-11.88L273.96-11.88L273.96-13.16Q273.96-15.88 272.44-17.30Q270.92-18.72 268.00-18.72L268.00-18.72Q266.00-18.72 264.16-18.06Q262.32-17.40 261.00-16.24L261.00-16.24L259.72-18.36Q261.32-19.72 263.56-20.46Q265.80-21.20 268.28-21.20L268.28-21.20ZM267.28-2.04Q269.68-2.04 271.40-3.14Q273.12-4.24 273.96-6.32L273.96-6.32L273.96-9.76L267.36-9.76Q261.96-9.76 261.96-6L261.96-6Q261.96-4.16 263.36-3.10Q264.76-2.04 267.28-2.04L267.28-2.04Z M297.80-3.32L298.80-1.28Q298.00-0.56 296.82-0.18Q295.64 0.20 294.36 0.20L294.36 0.20Q291.40 0.20 289.80-1.40Q288.20-3 288.20-5.92L288.20-5.92L288.20-18.64L284.44-18.64L284.44-21.04L288.20-21.04L288.20-25.64L291.04-25.64L291.04-21.04L297.44-21.04L297.44-18.64L291.04-18.64L291.04-6.08Q291.04-4.20 291.98-3.22Q292.92-2.24 294.68-2.24L294.68-2.24Q295.56-2.24 296.38-2.52Q297.20-2.80 297.80-3.32L297.80-3.32Z M324.76-10.52L324.72-9.64L307.12-9.64Q307.36-6.36 309.64-4.34Q311.92-2.32 315.40-2.32L315.40-2.32Q317.36-2.32 319.00-3.02Q320.64-3.72 321.84-5.08L321.84-5.08L323.44-3.24Q322.04-1.56 319.94-0.68Q317.84 0.20 315.32 0.20L315.32 0.20Q312.08 0.20 309.58-1.18Q307.08-2.56 305.68-5Q304.28-7.44 304.28-10.52L304.28-10.52Q304.28-13.60 305.62-16.04Q306.96-18.48 309.30-19.84Q311.64-21.20 314.56-21.20L314.56-21.20Q317.48-21.20 319.80-19.84Q322.12-18.48 323.44-16.06Q324.76-13.64 324.76-10.52L324.76-10.52ZM314.56-18.76Q311.52-18.76 309.46-16.82Q307.40-14.88 307.12-11.76L307.12-11.76L322.04-11.76Q321.76-14.88 319.70-16.82Q317.64-18.76 314.56-18.76L314.56-18.76Z M334.04 0.20Q333.16 0.20 332.54-0.44Q331.92-1.08 331.92-2L331.92-2Q331.92-2.92 332.54-3.54Q333.16-4.16 334.04-4.16L334.04-4.16Q334.92-4.16 335.56-3.54Q336.20-2.92 336.20-2L336.20-2Q336.20-1.08 335.56-0.44Q334.92 0.20 334.04 0.20L334.04 0.20Z M380.64 0L377.28-7.48L361.68-7.48L358.32 0L355.24 0L368.04-28L370.96-28L383.76 0L380.64 0ZM362.76-9.88L376.20-9.88L369.48-24.92L362.76-9.88Z M399.52 0.20Q396.40 0.20 393.94-1.16Q391.48-2.52 390.08-4.98Q388.68-7.44 388.68-10.52L388.68-10.52Q388.68-13.60 390.08-16.04Q391.48-18.48 393.94-19.84Q396.40-21.20 399.52-21.20L399.52-21.20Q402.24-21.20 404.38-20.14Q406.52-19.08 407.76-17.04L407.76-17.04L405.64-15.60Q404.60-17.16 403-17.94Q401.40-18.72 399.52-18.72L399.52-18.72Q397.24-18.72 395.42-17.70Q393.60-16.68 392.58-14.80Q391.56-12.92 391.56-10.52L391.56-10.52Q391.56-8.08 392.58-6.22Q393.60-4.36 395.42-3.34Q397.24-2.32 399.52-2.32L399.52-2.32Q401.40-2.32 403-3.08Q404.60-3.84 405.64-5.40L405.64-5.40L407.76-3.96Q406.52-1.92 404.36-0.86Q402.20 0.20 399.52 0.20L399.52 0.20Z M426.92-21.20Q430.88-21.20 433.22-18.90Q435.56-16.60 435.56-12.20L435.56-12.20L435.56 0L432.72 0L432.72-11.92Q432.72-15.20 431.08-16.92Q429.44-18.64 426.40-18.64L426.40-18.64Q423.00-18.64 421.02-16.62Q419.04-14.60 419.04-11.04L419.04-11.04L419.04 0L416.20 0L416.20-29.68L419.04-29.68L419.04-17.36Q420.20-19.20 422.24-20.20Q424.28-21.20 426.92-21.20L426.92-21.20Z M446.48 0L446.48-21.04L449.32-21.04L449.32 0L446.48 0ZM447.92-25.64Q447.04-25.64 446.44-26.24Q445.84-26.84 445.84-27.68L445.84-27.68Q445.84-28.48 446.44-29.08Q447.04-29.68 447.92-29.68L447.92-29.68Q448.80-29.68 449.40-29.10Q450.00-28.52 450.00-27.72L450.00-27.72Q450.00-26.84 449.40-26.24Q448.80-25.64 447.92-25.64L447.92-25.64Z M478.80-10.52L478.76-9.64L461.16-9.64Q461.40-6.36 463.68-4.34Q465.96-2.32 469.44-2.32L469.44-2.32Q471.40-2.32 473.04-3.02Q474.68-3.72 475.88-5.08L475.88-5.08L477.48-3.24Q476.08-1.56 473.98-0.68Q471.88 0.20 469.36 0.20L469.36 0.20Q466.12 0.20 463.62-1.18Q461.12-2.56 459.72-5Q458.32-7.44 458.32-10.52L458.32-10.52Q458.32-13.60 459.66-16.04Q461.00-18.48 463.34-19.84Q465.68-21.20 468.60-21.20L468.60-21.20Q471.52-21.20 473.84-19.84Q476.16-18.48 477.48-16.06Q478.80-13.64 478.80-10.52L478.80-10.52ZM468.60-18.76Q465.56-18.76 463.50-16.82Q461.44-14.88 461.16-11.76L461.16-11.76L476.08-11.76Q475.80-14.88 473.74-16.82Q471.68-18.76 468.60-18.76L468.60-18.76Z M502.28-21.04L505.08-21.04L495.72 0L492.80 0L483.48-21.04L486.44-21.04L494.32-3.12L502.28-21.04Z M530.04-10.52L530.00-9.64L512.40-9.64Q512.64-6.36 514.92-4.34Q517.20-2.32 520.68-2.32L520.68-2.32Q522.64-2.32 524.28-3.02Q525.92-3.72 527.12-5.08L527.12-5.08L528.72-3.24Q527.32-1.56 525.22-0.68Q523.12 0.20 520.60 0.20L520.60 0.20Q517.36 0.20 514.86-1.18Q512.36-2.56 510.96-5Q509.56-7.44 509.56-10.52L509.56-10.52Q509.56-13.60 510.90-16.04Q512.24-18.48 514.58-19.84Q516.92-21.20 519.84-21.20L519.84-21.20Q522.76-21.20 525.08-19.84Q527.40-18.48 528.72-16.06Q530.04-13.64 530.04-10.52L530.04-10.52ZM519.84-18.76Q516.80-18.76 514.74-16.82Q512.68-14.88 512.40-11.76L512.40-11.76L527.32-11.76Q527.04-14.88 524.98-16.82Q522.92-18.76 519.84-18.76L519.84-18.76Z M539.32 0.20Q538.44 0.20 537.82-0.44Q537.20-1.08 537.20-2L537.20-2Q537.20-2.92 537.82-3.54Q538.44-4.16 539.32-4.16L539.32-4.16Q540.20-4.16 540.84-3.54Q541.48-2.92 541.48-2L541.48-2Q541.48-1.08 540.84-0.44Q540.20 0.20 539.32 0.20L539.32 0.20Z M587.36 0L584.12 0L577.72-9Q576.64-8.88 575.48-8.88L575.48-8.88L567.96-8.88L567.96 0L565 0L565-28L575.48-28Q580.84-28 583.88-25.44Q586.92-22.88 586.92-18.40L586.92-18.40Q586.92-15.12 585.26-12.86Q583.60-10.60 580.52-9.60L580.52-9.60L587.36 0ZM575.40-11.40Q579.56-11.40 581.76-13.24Q583.96-15.08 583.96-18.40L583.96-18.40Q583.96-21.80 581.76-23.62Q579.56-25.44 575.40-25.44L575.40-25.44L567.96-25.44L567.96-11.40L575.40-11.40Z M614.88-10.52L614.84-9.64L597.24-9.64Q597.48-6.36 599.76-4.34Q602.04-2.32 605.52-2.32L605.52-2.32Q607.48-2.32 609.12-3.02Q610.76-3.72 611.96-5.08L611.96-5.08L613.56-3.24Q612.16-1.56 610.06-0.68Q607.96 0.20 605.44 0.20L605.44 0.20Q602.20 0.20 599.70-1.18Q597.20-2.56 595.80-5Q594.40-7.44 594.40-10.52L594.40-10.52Q594.40-13.60 595.74-16.04Q597.08-18.48 599.42-19.84Q601.76-21.20 604.68-21.20L604.68-21.20Q607.60-21.20 609.92-19.84Q612.24-18.48 613.56-16.06Q614.88-13.64 614.88-10.52L614.88-10.52ZM604.68-18.76Q601.64-18.76 599.58-16.82Q597.52-14.88 597.24-11.76L597.24-11.76L612.16-11.76Q611.88-14.88 609.82-16.82Q607.76-18.76 604.68-18.76L604.68-18.76Z M634.72-21.20Q637.68-21.20 640.08-19.86Q642.48-18.52 643.84-16.08Q645.20-13.64 645.20-10.52L645.20-10.52Q645.20-7.36 643.84-4.92Q642.48-2.48 640.10-1.14Q637.72 0.20 634.72 0.20L634.72 0.20Q632.16 0.20 630.10-0.86Q628.04-1.92 626.72-3.96L626.72-3.96L626.72 7.76L623.88 7.76L623.88-21.04L626.60-21.04L626.60-16.88Q627.88-18.96 629.98-20.08Q632.08-21.20 634.72-21.20L634.72-21.20ZM634.52-2.32Q636.72-2.32 638.52-3.34Q640.32-4.36 641.34-6.24Q642.36-8.12 642.36-10.52L642.36-10.52Q642.36-12.92 641.34-14.78Q640.32-16.64 638.52-17.68Q636.72-18.72 634.52-18.72L634.52-18.72Q632.28-18.72 630.50-17.68Q628.72-16.64 627.70-14.78Q626.68-12.92 626.68-10.52L626.68-10.52Q626.68-8.12 627.70-6.24Q628.72-4.36 630.50-3.34Q632.28-2.32 634.52-2.32L634.52-2.32Z M672.56-10.52L672.52-9.64L654.92-9.64Q655.16-6.36 657.44-4.34Q659.72-2.32 663.20-2.32L663.20-2.32Q665.16-2.32 666.80-3.02Q668.44-3.72 669.64-5.08L669.64-5.08L671.24-3.24Q669.84-1.56 667.74-0.68Q665.64 0.20 663.12 0.20L663.12 0.20Q659.88 0.20 657.38-1.18Q654.88-2.56 653.48-5Q652.08-7.44 652.08-10.52L652.08-10.52Q652.08-13.60 653.42-16.04Q654.76-18.48 657.10-19.84Q659.44-21.20 662.36-21.20L662.36-21.20Q665.28-21.20 667.60-19.84Q669.92-18.48 671.24-16.06Q672.56-13.64 672.56-10.52L672.56-10.52ZM662.36-18.76Q659.32-18.76 657.26-16.82Q655.20-14.88 654.92-11.76L654.92-11.76L669.84-11.76Q669.56-14.88 667.50-16.82Q665.44-18.76 662.36-18.76L662.36-18.76Z M688.32-21.20Q692.44-21.20 694.64-19.14Q696.84-17.08 696.84-13.04L696.84-13.04L696.84 0L694.12 0L694.12-3.28Q693.16-1.64 691.30-0.72Q689.44 0.20 686.88 0.20L686.88 0.20Q683.36 0.20 681.28-1.48Q679.20-3.16 679.20-5.92L679.20-5.92Q679.20-8.60 681.14-10.24Q683.08-11.88 687.32-11.88L687.32-11.88L694.00-11.88L694.00-13.16Q694.00-15.88 692.48-17.30Q690.96-18.72 688.04-18.72L688.04-18.72Q686.04-18.72 684.20-18.06Q682.36-17.40 681.04-16.24L681.04-16.24L679.76-18.36Q681.36-19.72 683.60-20.46Q685.84-21.20 688.32-21.20L688.32-21.20ZM687.32-2.04Q689.72-2.04 691.44-3.14Q693.16-4.24 694.00-6.32L694.00-6.32L694.00-9.76L687.40-9.76Q682.00-9.76 682.00-6L682.00-6Q682.00-4.16 683.40-3.10Q684.80-2.04 687.32-2.04L687.32-2.04Z M717.84-3.32L718.84-1.28Q718.04-0.56 716.86-0.18Q715.68 0.20 714.40 0.20L714.40 0.20Q711.44 0.20 709.84-1.40Q708.24-3 708.24-5.92L708.24-5.92L708.24-18.64L704.48-18.64L704.48-21.04L708.24-21.04L708.24-25.64L711.08-25.64L711.08-21.04L717.48-21.04L717.48-18.64L711.08-18.64L711.08-6.08Q711.08-4.20 712.02-3.22Q712.96-2.24 714.72-2.24L714.72-2.24Q715.60-2.24 716.42-2.52Q717.24-2.80 717.84-3.32L717.84-3.32Z M727.88 0.20Q727.00 0.20 726.38-0.44Q725.76-1.08 725.76-2L725.76-2Q725.76-2.92 726.38-3.54Q727.00-4.16 727.88-4.16L727.88-4.16Q728.76-4.16 729.40-3.54Q730.04-2.92 730.04-2L730.04-2Q730.04-1.08 729.40-0.44Q728.76 0.20 727.88 0.20L727.88 0.20Z"/></g>
</svg>
</g><g opacity="1" transform="rotate(0 102.7418 326)">
<svg width="338.4025" height="50" x="102.7418" y="326" version="1.1" preserveAspectRatio="none" viewBox="0.84 -34.68 236.88 35">
  <g transform="matrix(1 0 0 1 0 0)" class="companyName"><path id="id-D6z1nYkh12" d="M9.68 0.32Q5 0.32 2.92-2Q0.84-4.32 0.84-9.48L0.84-9.48L0.84-12.84L7.60-12.84L7.60-8.56Q7.60-6 9.24-6L9.24-6Q10.16-6 10.52-6.54Q10.88-7.08 10.88-8.36L10.88-8.36Q10.88-10.04 10.48-11.14Q10.08-12.24 9.46-12.98Q8.84-13.72 7.24-15.28L7.24-15.28L4.28-18.24Q0.84-21.60 0.84-25.68L0.84-25.68Q0.84-30.08 2.86-32.38Q4.88-34.68 8.76-34.68L8.76-34.68Q13.40-34.68 15.44-32.22Q17.48-29.76 17.48-24.52L17.48-24.52L10.48-24.52L10.44-26.88Q10.44-27.56 10.06-27.96Q9.68-28.36 9-28.36L9-28.36Q8.20-28.36 7.80-27.92Q7.40-27.48 7.40-26.72L7.40-26.72Q7.40-25.04 9.32-23.24L9.32-23.24L13.32-19.40Q14.72-18.04 15.64-16.82Q16.56-15.60 17.12-13.94Q17.68-12.28 17.68-10L17.68-10Q17.68-4.92 15.82-2.30Q13.96 0.32 9.68 0.32L9.68 0.32Z M29.60 0L22.76 0L22.76-34.36L29.60-34.36L29.60-22.08L32.84-22.08L32.84-34.36L39.68-34.36L39.68 0L32.84 0L32.84-15.60L29.60-15.60L29.60 0Z M51.84 0L45.20 0L45.20-34.36L51.84-34.36L51.84 0Z M64.24 0L57.40 0L57.40-34.36L64.20-34.36L64.20-20.60L67.40-34.36L74.32-34.36L70.48-18.64L75.12 0L68 0L64.24-16.64L64.24 0Z M85.92 0L79.08 0L79.08-34.36L85.92-34.36L85.92-22.08L89.16-22.08L89.16-34.36L96.00-34.36L96.00 0L89.16 0L89.16-15.60L85.92-15.60L85.92 0Z M107.60 0L100.92 0L104.24-34.36L115.88-34.36L119.16 0L112.64 0L112.16-5.56L108.00-5.56L107.60 0ZM109.80-28.52L108.52-11.04L111.64-11.04L110.12-28.52L109.80-28.52Z M124.04 0L124.04-34.36L134.60-34.36Q137.12-34.36 138.50-33.22Q139.88-32.08 140.36-30.02Q140.84-27.96 140.84-24.76L140.84-24.76Q140.84-21.84 140.08-20.20Q139.32-18.56 137.44-17.92L137.44-17.92Q139.00-17.60 139.70-16.36Q140.40-15.12 140.40-13L140.40-13L140.32 0L133.60 0L133.60-13.44Q133.60-14.88 133.04-15.28Q132.48-15.68 131.00-15.68L131.00-15.68L131.00 0L124.04 0ZM131.04-21.64L132.68-21.64Q134.12-21.64 134.12-24.76L134.12-24.76Q134.12-26.12 134.00-26.80Q133.88-27.48 133.56-27.74Q133.24-28 132.64-28L132.64-28L131.04-28L131.04-21.64Z M158.08 0L158.08-34.36L167.56-34.36Q171.24-34.36 173.08-32.32Q174.92-30.28 174.96-26.28L174.96-26.28L175.04-10.20Q175.08-5.12 173.28-2.56Q171.48 0 167.32 0L167.32 0L158.08 0ZM165-6.08L166.20-6.08Q168.08-6.08 168.08-7.92L168.08-7.92L168.08-25.64Q168.08-26.80 167.90-27.38Q167.72-27.96 167.24-28.16Q166.76-28.36 165.76-28.36L165.76-28.36L165-28.36L165-6.08Z M186.36 0L179.68 0L183-34.36L194.64-34.36L197.92 0L191.40 0L190.92-5.56L186.76-5.56L186.36 0ZM188.56-28.52L187.28-11.04L190.40-11.04L188.88-28.52L188.56-28.52Z M214.52 0L205.12 0L200.88-34.40L207.44-34.40L209.96-11L212.20-34.40L218.76-34.40L214.52 0Z M237.72 0L223.52 0L223.52-34.36L237.28-34.36L237.28-27.72L230.52-27.72L230.52-21.04L237.00-21.04L237.00-14.56L230.52-14.56L230.52-6.68L237.72-6.68L237.72 0Z"/></g>
</svg>
</g></svg></svg>